<?xml version="1.0" standalone="no"?>
<!DOCTYPE svg PUBLIC "-//W3C//DTD SVG 1.1//EN" "http://www.w3.org/Graphics/SVG/1.1/DTD/svg11.dtd" >
<svg xmlns="http://www.w3.org/2000/svg">
<metadata>Generated by IcoMoon</metadata>
<defs>
<font id="icomoon" horiz-adv-x="1024">
<font-face units-per-em="1024" ascent="960" descent="-64" />
<missing-glyph horiz-adv-x="1024" />
<glyph unicode="&#x20;" horiz-adv-x="512" d="" />
<glyph unicode="&#xe900;" glyph-name="block" d="M84.846 954.149h851.383c46.811 0 84.846-38.034 84.846-84.846v-842.606c0-46.811-38.034-84.846-84.846-84.846h-851.383c-46.811 0-84.846 38.034-84.846 84.846v842.606c0 46.811 38.034 84.846 84.846 84.846z" />
<glyph unicode="&#xe901;" glyph-name="mail-circled" d="M725.577 594.286h-421.303c-26.331 0-49.737-23.406-49.737-49.737v-245.76c0-26.331 20.48-49.737 49.737-49.737h424.229c26.331 0 49.737 23.406 49.737 49.737v245.76c-2.926 26.331-26.331 49.737-52.663 49.737zM318.903 562.103h389.12c5.851 0 8.777 0 11.703-2.926l-196.023-175.543c-2.926-2.926-8.777-2.926-11.703-2.926-5.851 0-8.777 2.926-11.703 5.851l-193.097 175.543c5.851-2.926 8.777 0 11.703 0zM286.72 526.994c0 2.926 0 5.851 2.926 8.777l128.731-117.029-128.731-114.103c0 2.926-2.926 5.851-2.926 8.777v213.577zM710.949 281.234h-392.046c-2.926 0-5.851 0-5.851 0l128.731 114.103 40.96-38.034c20.48-17.554 46.811-14.629 67.291 0l40.96 38.034 125.806-114.103c-2.926 0-5.851 0-5.851 0zM743.131 313.417c0-2.926 0-5.851-2.926-8.777l-125.806 114.103 125.806 114.103c0 0 0-2.926 0-2.926v-216.503zM512-64c-280.869 0-512 231.131-512 512s231.131 512 512 512 512-231.131 512-512-231.131-512-512-512zM512 916.114c-257.463 0-468.114-210.651-468.114-468.114s210.651-468.114 468.114-468.114 468.114 210.651 468.114 468.114-210.651 468.114-468.114 468.114z" />
<glyph unicode="&#xe902;" glyph-name="twitter" d="M1024 766.903c-38.034-17.554-78.994-29.257-119.954-32.183 43.886 26.331 76.069 67.291 93.623 117.029-40.96-23.406-84.846-40.96-134.583-49.737-38.034 40.96-93.623 67.291-152.137 67.291-117.029 0-210.651-93.623-210.651-210.651 0-17.554 2.926-32.183 5.851-46.811-175.543 2.926-330.606 87.771-435.931 213.577-17.554-32.183-29.257-67.291-29.257-105.326 0-73.143 38.034-137.509 93.623-175.543-35.109 0-67.291 11.703-96.549 26.331 0 0 0-2.926 0-2.926 0-102.4 73.143-187.246 169.691-204.8-17.554-5.851-35.109-8.777-55.589-8.777-14.629 0-26.331 0-40.96 2.926 26.331-84.846 105.326-143.36 196.023-146.286-73.143-55.589-163.84-90.697-260.389-90.697-17.554 0-35.109 0-49.737 2.926 93.623-58.514 204.8-93.623 321.829-93.623 386.194 0 596.846 318.903 596.846 596.846 0 8.777 0 17.554 0 26.331 43.886 35.109 78.994 70.217 108.251 114.103v0z" />
<glyph unicode="&#xe903;" glyph-name="arrow-down" d="M915.749 313.417c26.331 26.331 26.331 64.366 0 90.697s-67.291 26.331-93.623 0l-239.909-231.131v722.651c0 35.109-29.257 64.366-67.291 64.366s-67.291-29.257-67.291-64.366v-725.577l-245.76 234.057c-26.331 26.331-67.291 26.331-93.623 0-11.703-11.703-20.48-29.257-20.48-46.811s5.851-32.183 20.48-43.886l403.749-377.417 403.749 377.417z" />
<glyph unicode="&#xe904;" glyph-name="arrow-left" d="M377.417 44.251c26.331-26.331 64.366-26.331 90.697 0s26.331 67.291 0 93.623l-231.131 239.909h722.651c35.109 0 64.366 29.257 64.366 67.291s-29.257 67.291-64.366 67.291h-725.577l234.057 245.76c26.331 26.331 26.331 67.291 0 93.623-11.703 11.703-29.257 20.48-46.811 20.48s-32.183-5.851-43.886-20.48l-377.417-403.749 377.417-403.749z" />
<glyph unicode="&#xe905;" glyph-name="arrow-right" d="M646.583 851.749c-26.331 26.331-64.366 26.331-90.697 0s-26.331-67.291 0-93.623l231.131-239.909h-722.651c-35.109 0-64.366-29.257-64.366-67.291s29.257-67.291 64.366-67.291h725.577l-234.057-245.76c-26.331-26.331-26.331-67.291 0-93.623 11.703-11.703 29.257-20.48 46.811-20.48s32.183 5.851 43.886 20.48l377.417 403.749-377.417 403.749z" />
<glyph unicode="&#xe906;" glyph-name="arrow-up" d="M108.251 582.583c-26.331-26.331-26.331-64.366 0-90.697s67.291-26.331 93.623 0l239.909 231.131v-722.651c0-35.109 29.257-64.366 67.291-64.366s67.291 29.257 67.291 64.366v725.577l245.76-236.983c26.331-26.331 67.291-26.331 93.623 0 11.703 11.703 20.48 29.257 20.48 46.811s-5.851 32.183-20.48 43.886l-403.749 380.343-403.749-377.417z" />
<glyph unicode="&#xe907;" glyph-name="badge" d="M599.771 895.634h345.234c8.777 0 14.629-5.851 14.629-14.629v-339.383c0-11.703 0-32.183-2.926-38.034l-506.149-503.223-386.194 386.194 506.149 506.149c2.926 2.926 23.406 2.926 29.257 2.926zM945.006 960h-345.234c-20.48 0-55.589 0-76.069-20.48l-503.223-506.149c-14.629-11.703-20.48-29.257-20.48-46.811s5.851-32.183 17.554-46.811l386.194-386.194c11.703-11.703 29.257-17.554 46.811-17.554s32.183 5.851 46.811 17.554l506.149 506.149c20.48 20.48 20.48 52.663 20.48 81.92v339.383c0 43.886-35.109 78.994-78.994 78.994v0zM766.537 831.269c70.217 0 128.731-58.514 128.731-128.731s-58.514-128.731-128.731-128.731-128.731 58.514-128.731 128.731c2.926 73.143 58.514 128.731 128.731 128.731zM766.537 766.903c35.109 0 64.366-29.257 64.366-64.366s-29.257-64.366-64.366-64.366c-35.109 0-64.366 29.257-64.366 64.366s29.257 64.366 64.366 64.366z" />
<glyph unicode="&#xe908;" glyph-name="box" d="M108.251 889.783h675.84c61.44 0 108.251-49.737 108.251-108.251v-664.137c0-61.44-49.737-108.251-108.251-108.251h-675.84c-61.44 0-108.251 49.737-108.251 108.251v664.137c0 58.514 49.737 108.251 108.251 108.251zM1024 445.074l-245.76-140.434v280.869l245.76-140.434z" />
<glyph unicode="&#xe909;" glyph-name="calendar" d="M345.234 550.4h-96.549c-8.777 0-11.703-2.926-11.703-8.777v-73.143c0-5.851 2.926-8.777 11.703-8.777h96.549c8.777 0 11.703 0 11.703 8.777v73.143c0 8.777-2.926 8.777-11.703 8.777zM567.589 550.4h-96.549c-8.777 0-11.703-2.926-11.703-8.777v-73.143c0-5.851 2.926-8.777 11.703-8.777h96.549c8.777 0 11.703 0 11.703 8.777v73.143c0 8.777-2.926 8.777-11.703 8.777zM775.314 550.4h-96.549c-8.777 0-11.703-2.926-11.703-8.777v-73.143c0-5.851 2.926-8.777 11.703-8.777h96.549c8.777 0 11.703 0 11.703 8.777v73.143c0 8.777-2.926 8.777-11.703 8.777zM345.234 383.634h-96.549c-8.777 0-11.703-2.926-11.703-8.777v-73.143c0-5.851 2.926-8.777 11.703-8.777h96.549c8.777 0 11.703 0 11.703 8.777v73.143c0 8.777-2.926 8.777-11.703 8.777zM567.589 383.634h-96.549c-8.777 0-11.703-2.926-11.703-8.777v-73.143c0-5.851 2.926-8.777 11.703-8.777h96.549c8.777 0 11.703 0 11.703 8.777v73.143c0 8.777-2.926 8.777-11.703 8.777zM775.314 383.634h-96.549c-8.777 0-11.703-2.926-11.703-8.777v-73.143c0-5.851 2.926-8.777 11.703-8.777h96.549c8.777 0 11.703 0 11.703 8.777v73.143c0 8.777-2.926 8.777-11.703 8.777zM345.234 219.794h-96.549c-8.777 0-11.703-2.926-11.703-8.777v-73.143c0-5.851 2.926-8.777 11.703-8.777h96.549c8.777 0 11.703 0 11.703 8.777v73.143c0 5.851-2.926 8.777-11.703 8.777zM567.589 219.794h-96.549c-8.777 0-11.703-2.926-11.703-8.777v-73.143c0-5.851 2.926-8.777 11.703-8.777h96.549c8.777 0 11.703 0 11.703 8.777v73.143c0 5.851-2.926 8.777-11.703 8.777zM775.314 219.794h-96.549c-8.777 0-11.703-2.926-11.703-8.777v-73.143c0-5.851 2.926-8.777 11.703-8.777h96.549c8.777 0 11.703 0 11.703 8.777v73.143c0 5.851-2.926 8.777-11.703 8.777zM895.269 863.451h-152.137v64.366c0 23.406 0 32.183-5.851 32.183h-49.737c-5.851 0-5.851-5.851-5.851-32.183v-64.366h-149.211v64.366c0 23.406 0 32.183-5.851 32.183h-49.737c-5.851 0-5.851-5.851-5.851-32.183v-64.366h-149.211v64.366c0 23.406 0 32.183-5.851 32.183h-43.886c-5.851 0-5.851-5.851-5.851-32.183v-64.366h-137.509c-46.811 0-84.846-38.034-84.846-84.846v-757.76c0-46.811 38.034-84.846 84.846-84.846h763.611c46.811 0 84.846 38.034 84.846 84.846v757.76c2.926 46.811-35.109 84.846-81.92 84.846zM921.6 67.657c0-64.366-11.703-73.143-73.143-73.143h-669.989c-64.366 0-73.143 17.554-73.143 73.143v664.137c0 58.514 5.851 73.143 73.143 73.143h87.771v-67.291c0-23.406 0-32.183 5.851-32.183h49.737c5.851 0 5.851 8.777 5.851 32.183v67.291h149.211v-67.291c0-23.406 0-32.183 5.851-32.183h49.737c5.851 0 5.851 8.777 5.851 32.183v67.291h149.211v-67.291c0-23.406 0-32.183 5.851-32.183h49.737c5.851 0 5.851 8.777 5.851 32.183v67.291h105.326c67.291 0 73.143-17.554 73.143-73.143v-664.137z" />
<glyph unicode="&#xe90a;" glyph-name="card" d="M781.166 88.137h-538.331c-134.583 0-242.834 108.251-242.834 242.834v234.057c0 134.583 108.251 242.834 242.834 242.834h538.331c134.583 0 242.834-108.251 242.834-242.834v-234.057c0-134.583-108.251-242.834-242.834-242.834zM242.834 778.606c-117.029 0-213.577-96.549-213.577-213.577v-234.057c0-119.954 96.549-213.577 213.577-213.577h538.331c119.954 0 213.577 96.549 213.577 213.577v234.057c0 119.954-96.549 213.577-213.577 213.577h-538.331zM459.337 360.229l-70.217 40.96c26.331 20.48 35.109 64.366 35.109 87.771v49.737c0 32.183-40.96 70.217-84.846 70.217-40.96 0-84.846-35.109-84.846-70.217v-49.737c0-20.48 8.777-64.366 35.109-87.771l-73.143-40.96c0 0-20.48-8.777-20.48-20.48v-29.257c0-11.703 8.777-20.48 20.48-20.48h245.76c11.703 0 20.48 8.777 20.48 20.48v29.257c-2.926 11.703-23.406 20.48-23.406 20.48zM590.994 565.029h236.983v-38.034h-236.983v38.034zM590.994 486.034h236.983v-38.034h-236.983v38.034zM590.994 407.040h236.983v-38.034h-236.983v38.034zM590.994 328.046h236.983v-38.034h-236.983v38.034z" />
<glyph unicode="&#xe90b;" glyph-name="chat" d="M866.011-23.040v0c-11.703 0-26.331 5.851-43.886 17.554-35.109 26.331-125.806 90.697-187.246 137.509-40.96-8.777-81.92-11.703-122.88-11.703-280.869 0-512 178.469-512 397.897s231.131 400.823 512 400.823 512-181.394 512-400.823c0-111.177-61.44-219.429-166.766-292.571 14.629-61.44 35.109-146.286 43.886-175.543 5.851-26.331 5.851-46.811-5.851-58.514-5.851-8.777-17.554-14.629-29.257-14.629zM646.583 175.909l5.851-5.851c58.514-46.811 155.063-117.029 190.171-143.36 14.629-8.777 20.48-8.777 20.48-8.777v0c0 0 0 8.777-2.926 23.406-8.777 29.257-32.183 125.806-46.811 187.246l-2.926 14.629 11.703 8.777c102.4 67.291 160.914 166.766 160.914 269.166 0 198.949-213.577 359.863-473.966 359.863-257.463-2.926-471.040-163.84-471.040-362.789s213.577-359.863 473.966-359.863c40.96 0 81.92 5.851 125.806 11.703l8.777 5.851zM324.754 565.029c29.257 0 52.663-23.406 52.663-49.737s-23.406-49.737-52.663-49.737c-29.257 0-52.663 23.406-52.663 49.737s23.406 49.737 52.663 49.737zM523.703 565.029c29.257 0 52.663-23.406 52.663-49.737s-23.406-49.737-52.663-49.737c-29.257 0-52.663 23.406-52.663 49.737s23.406 49.737 52.663 49.737zM713.874 565.029c29.257 0 52.663-23.406 52.663-49.737s-23.406-49.737-52.663-49.737c-29.257 0-52.663 23.406-52.663 49.737s23.406 49.737 52.663 49.737z" />
<glyph unicode="&#xe90c;" glyph-name="checked" d="M283.794 488.96l140.434-275.017c0 0 228.206 561.737 590.994 748.983-8.777-134.583-43.886-248.686 17.554-392.046-157.989-38.034-485.669-438.857-590.994-634.88-149.211 187.246-327.68 330.606-450.56 374.491l292.571 178.469z" />
<glyph unicode="&#xe90d;" glyph-name="checked2" d="M997.669 775.68c-67.291 70.217-125.806 46.811-198.949-20.48l-427.154-427.154-228.206 225.28c-26.331 26.331-76.069 17.554-111.177-17.554s-43.886-84.846-17.554-108.251l242.834-239.909c11.703-23.406 43.886-52.663 67.291-76.069 35.109-35.109 111.177-40.96 146.286-5.851l517.851 512c46.811 40.96 43.886 122.88 8.777 157.989z" />
<glyph unicode="&#xe90e;" glyph-name="close" d="M512 960c-283.794 0-512-228.206-512-512s228.206-512 512-512c283.794 0 512 228.206 512 512s-228.206 512-512 512zM512 35.474c-228.206 0-412.526 184.32-412.526 412.526s184.32 412.526 412.526 412.526c228.206 0 412.526-184.32 412.526-412.526 0-225.28-184.32-412.526-412.526-412.526zM696.32 646.949c-14.629 11.703-38.034 5.851-52.663-5.851l-134.583-134.583-137.509 134.583c-11.703 11.703-32.183 11.703-43.886 0s-35.109-38.034 0-70.217l122.88-122.88-122.88-122.88c-11.703-11.703-32.183-38.034 0-70.217 11.703-11.703 32.183-11.703 43.886 0l134.583 134.583 114.103-117.029c29.257-23.406 55.589-5.851 67.291 5.851s14.629 40.96-17.554 67.291l-102.4 102.4 122.88 122.88c11.703 11.703 46.811 43.886 5.851 76.069z" />
<glyph unicode="&#xe90f;" glyph-name="facebook" d="M602.697 960c2.926 0 5.851 0 5.851 0h93.623v-134.583h-93.623c-52.663 0-49.737-43.886-49.737-43.886v-175.543h181.394l-26.331-131.657h-157.989v-538.331h-128.731v535.406h-143.36v131.657h143.36c0 0 0 137.509 0 172.617 0 152.137 143.36 184.32 175.543 184.32z" />
<glyph unicode="&#xe910;" glyph-name="facebook-circled" d="M550.034 664.503c2.926 0 2.926 0 0 0h43.886v-55.589h-40.96c-20.48 0-20.48-20.48-20.48-20.48v-76.069h76.069l-11.703-55.589h-67.291v-228.206h-55.589v228.206h-61.44v55.589h61.44c0 0 0 58.514 0 73.143 2.926 67.291 64.366 78.994 76.069 78.994zM512-64c-280.869 0-512 231.131-512 512s231.131 512 512 512 512-231.131 512-512-231.131-512-512-512zM512 916.114c-257.463 0-468.114-210.651-468.114-468.114s210.651-468.114 468.114-468.114 468.114 210.651 468.114 468.114-210.651 468.114-468.114 468.114z" />
<glyph unicode="&#xe911;" glyph-name="hands" d="M1021.074 497.737c-46.811 84.846-93.623 166.766-140.434 251.611-8.777 17.554-26.331 20.48-40.96 11.703-17.554-8.777-35.109-17.554-49.737-29.257l-14.629-5.851c-23.406-14.629-29.257-23.406-17.554-46.811-17.554-11.703-38.034-14.629-58.514-8.777-29.257 8.777-67.291 17.554-105.326 20.48-11.703 0-23.406 2.926-35.109 2.926-40.96 0-81.92-5.851-131.657-17.554-8.777-2.926-20.48-8.777-26.331-17.554-8.777-14.629-17.554-17.554-35.109-14.629 0 0 0 0-2.926 0h-2.926c-29.257 2.926-61.44 11.703-84.846 35.109-8.777 5.851-8.777 5.851-5.851 11.703 5.851 8.777 8.777 17.554 5.851 23.406 0 5.851-5.851 14.629-14.629 17.554-11.703 5.851-20.48 11.703-32.183 17.554s-20.48 11.703-32.183 17.554c-8.777 5.851-17.554 8.777-23.406 8.777-11.703 0-20.48-5.851-29.257-23.406-20.48-38.034-40.96-73.143-61.44-111.177l-40.96-73.143c-11.703-23.406-26.331-46.811-38.034-70.217-2.926-5.851-2.926-14.629 0-20.48 2.926-8.777 8.777-14.629 14.629-17.554 14.629-5.851 26.331-11.703 38.034-20.48 17.554-11.703 29.257-20.48 43.886-20.48 8.777 0 17.554 2.926 26.331 8.777 2.926-2.926 5.851-5.851 8.777-8.777 8.777-8.777 14.629-17.554 23.406-26.331 5.851-5.851 5.851-8.777 0-17.554-11.703-14.629-14.629-35.109-11.703-52.663 2.926-14.629 14.629-29.257 29.257-35.109 8.777-2.926 14.629-5.851 23.406-5.851 2.926 0 5.851 0 5.851 0-2.926-17.554 2.926-35.109 14.629-46.811 14.629-17.554 38.034-23.406 61.44-17.554 11.703-35.109 29.257-52.663 55.589-52.663 8.777 0 17.554 2.926 26.331 5.851 0 0 0-2.926 0-2.926 2.926-23.406 29.257-43.886 55.589-43.886 2.926 0 8.777 0 11.703 2.926 20.48 5.851 32.183 20.48 40.96 32.183 2.926 5.851 5.851 5.851 5.851 5.851 2.926 0 2.926 0 5.851-2.926 38.034-17.554 70.217-23.406 99.474-20.48 23.406 2.926 35.109 11.703 43.886 32.183 0 0 2.926 2.926 5.851 2.926 5.851 0 8.777 0 14.629 0 14.629 0 26.331 5.851 38.034 14.629 14.629 11.703 20.48 29.257 17.554 46.811 5.851 0 11.703 0 14.629 0 8.777 0 23.406 0 35.109 11.703 14.629 14.629 20.48 29.257 14.629 46.811 2.926 0 5.851 0 8.777 0 11.703 0 23.406 0 29.257 0 11.703 2.926 23.406 11.703 29.257 26.331s5.851 32.183-2.926 46.811c0 2.926-2.926 5.851-2.926 8.777 17.554 14.629 35.109 29.257 52.663 43.886l11.703 8.777c11.703-11.703 20.48-17.554 32.183-8.777 29.257 14.629 55.589 29.257 81.92 43.886 17.554 2.926 20.48 17.554 14.629 32.183zM1000.594 480.183c0-2.926-2.926-5.851-8.777-8.777-20.48-8.777-40.96-20.48-58.514-32.183l-5.851-2.926c-2.926-2.926-5.851-2.926-5.851-2.926-2.926 0-5.851 0-8.777 5.851l-111.177 198.949c-8.777 14.629-17.554 29.257-23.406 43.886-5.851 11.703-5.851 11.703 5.851 17.554 17.554 8.777 35.109 20.48 52.663 29.257l8.777 5.851c2.926 0 5.851 2.926 5.851 2.926s2.926 0 2.926 0c0 0 0 0 2.926 0 2.926-2.926 5.851-2.926 5.851-5.851 38.034-70.217 78.994-140.434 117.029-210.651l17.554-35.109c2.926 0 2.926-2.926 2.926-5.851zM605.623 412.891c-2.926 0-5.851 0-5.851 0s-2.926 0-2.926 0h-5.851l2.926-5.851c0 0 0-2.926 0-2.926 0-2.926 2.926-5.851 5.851-8.777 14.629-11.703 32.183-20.48 46.811-29.257 8.777-5.851 20.48-11.703 29.257-17.554 17.554-11.703 35.109-20.48 49.737-32.183 5.851-2.926 11.703-8.777 14.629-14.629 8.777-8.777 11.703-17.554 5.851-26.331-5.851-14.629-14.629-20.48-26.331-17.554-17.554 2.926-32.183 8.777-43.886 14.629-20.48 11.703-43.886 23.406-64.366 35.109-14.629 8.777-29.257 17.554-43.886 23.406-2.926 2.926-5.851 2.926-8.777 2.926s-2.926 0-5.851 0c0 0-2.926 0-5.851 0h-8.777l2.926-5.851c0 0 2.926-2.926 2.926-2.926 2.926-2.926 2.926-8.777 8.777-8.777 23.406-14.629 49.737-29.257 73.143-43.886l26.331-14.629c11.703-5.851 26.331-17.554 20.48-35.109s-26.331-26.331-43.886-17.554c-20.48 8.777-40.96 17.554-58.514 29.257-8.777 2.926-14.629 8.777-23.406 11.703-2.926 2.926-8.777 2.926-11.703 5.851-5.851 2.926-11.703 5.851-20.48 8.777-2.926 0-5.851 0-11.703 0 0 0-2.926 0-2.926 0h-5.851l2.926-5.851c0 0 0-2.926 2.926-2.926 2.926-2.926 2.926-8.777 5.851-8.777 14.629-8.777 32.183-17.554 46.811-26.331 11.703-5.851 23.406-11.703 38.034-20.48 0 0 2.926 0 2.926-2.926 5.851-2.926 8.777-2.926 5.851-8.777-2.926-8.777-5.851-14.629-14.629-17.554-17.554-5.851-35.109-2.926-55.589 0h-2.926c-5.851 0-11.703 2.926-20.48 5.851-5.851 2.926-11.703 2.926-17.554 5.851-2.926 0-5.851 2.926-5.851 2.926 0 2.926 0 2.926 0 8.777 8.777 29.257 0 52.663-26.331 67.291-5.851 2.926-14.629 5.851-23.406 5.851-2.926 0-5.851 0-8.777 2.926 0 26.331-5.851 43.886-17.554 55.589s-26.331 14.629-49.737 11.703c0 20.48-8.777 46.811-38.034 55.589-23.406 8.777-46.811 2.926-61.44-17.554 0 2.926-2.926 2.926-2.926 5.851-5.851 8.777-8.777 17.554-17.554 20.48-11.703 8.777-26.331 8.777-38.034 11.703-5.851 0-14.629-2.926-20.48-5.851h-2.926c-2.926 0-2.926-2.926-5.851-2.926 0 0-2.926 0-5.851 2.926l11.703 2.926c-8.777 11.703-17.554 20.48-26.331 32.183-11.703 8.777-8.777 17.554-2.926 29.257 2.926 5.851 5.851 11.703 11.703 14.629 2.926 2.926 5.851 8.777 8.777 14.629 5.851 8.777 11.703 20.48 14.629 29.257 2.926 5.851 5.851 8.777 8.777 14.629l14.629 26.331c8.777 14.629 14.629 29.257 23.406 40.96 5.851 14.629 11.703 29.257 20.48 43.886l5.851 14.629c38.034-29.257 81.92-38.034 117.029-43.886l-52.663-90.697c-8.777-11.703-8.777-23.406-5.851-32.183s14.629-14.629 29.257-14.629c5.851 0 8.777 0 14.629 0 46.811 0 87.771 26.331 108.251 70.217 0 0 2.926 2.926 8.777 5.851s14.629 5.851 20.48 5.851c14.629 0 26.331-5.851 40.96-14.629 2.926-2.926 5.851-2.926 8.777-5.851 93.623-49.737 175.543-105.326 242.834-166.766 8.777-8.777 17.554-17.554 26.331-29.257 5.851-8.777 5.851-17.554 0-29.257-5.851-8.777-14.629-11.703-26.331-8.777-17.554 5.851-38.034 11.703-55.589 20.48-29.257 17.554-58.514 35.109-84.846 52.663-11.703 8.777-23.406 14.629-35.109 23.406 2.926 0 0 2.926-5.851 2.926zM392.046 196.389c5.851 8.777 11.703 14.629 17.554 23.406l2.926 5.851c5.851 8.777 17.554 14.629 29.257 14.629 5.851 0 14.629-2.926 20.48-5.851s11.703-11.703 14.629-23.406c0-8.777 0-14.629-5.851-20.48-2.926-2.926-5.851-5.851-5.851-8.777-5.851-8.777-14.629-20.48-20.48-29.257-2.926-2.926-11.703-5.851-14.629-8.777-2.926 0-2.926 0-2.926-2.926-17.554 0-29.257 5.851-35.109 17.554-8.777 14.629-8.777 26.331 0 38.034zM172.617 357.303c8.777 14.629 14.629 26.331 32.183 29.257 2.926 0 8.777 2.926 11.703 2.926 8.777 0 17.554-2.926 23.406-11.703s11.703-20.48 5.851-35.109c-8.777-14.629-17.554-29.257-32.183-38.034-2.926 0-5.851-2.926-8.777-2.926 0 0-2.926 0-2.926 0-14.629 0-26.331 5.851-32.183 17.554-5.851 8.777-5.851 23.406 0 32.183l2.926 5.851zM234.057 287.086l11.703 14.629c14.629 17.554 26.331 38.034 40.96 55.589 11.703 14.629 32.183 17.554 49.737 5.851 14.629-11.703 17.554-32.183 2.926-49.737-8.777-11.703-20.48-26.331-29.257-38.034-5.851-8.777-11.703-14.629-17.554-23.406-8.777-11.703-17.554-20.48-32.183-17.554v0 0c-14.629 0-23.406 5.851-32.183 17.554 0 8.777-2.926 23.406 5.851 35.109zM310.126 231.497c5.851 8.777 11.703 17.554 17.554 26.331s14.629 20.48 20.48 29.257c2.926 2.926 5.851 8.777 8.777 11.703 11.703 14.629 32.183 17.554 46.811 5.851s17.554-32.183 8.777-46.811c-14.629-20.48-29.257-38.034-43.886-61.44-8.777-11.703-26.331-17.554-40.96-11.703-8.777 2.926-20.48 17.554-20.48 38.034 0 5.851 0 5.851 2.926 8.777zM810.423 389.486c-78.994 70.217-169.691 134.583-292.571 196.023-5.851 2.926-8.777 2.926-14.629 2.926-2.926 0-5.851 0-8.777 0-29.257-5.851-46.811-17.554-58.514-43.886s-46.811-40.96-73.143-40.96v0c-8.777 0-14.629 0-20.48 2.926-2.926 0-5.851 2.926-8.777 2.926 0 0 0 0-2.926 0l20.48 35.109c17.554 32.183 38.034 64.366 55.589 93.623 8.777 11.703 20.48 14.629 35.109 17.554h2.926c35.109 5.851 70.217 11.703 108.251 11.703 43.886 2.926 90.697-2.926 134.583-20.48 8.777-2.926 17.554-5.851 26.331-5.851 17.554 0 32.183 5.851 43.886 11.703l5.851 2.926 14.629-26.331c11.703-23.406 26.331-46.811 38.034-70.217 17.554-35.109 40.96-73.143 61.44-111.177 0-2.926 0-8.777 0-8.777-17.554-17.554-38.034-35.109-64.366-55.589 0 5.851 0 5.851-2.926 5.851zM32.183 474.331c-11.703 8.777-14.629 8.777-5.851 23.406 43.886 78.994 87.771 157.989 131.657 236.983l5.851 11.703c5.851 5.851 8.777 8.777 8.777 8.777 2.926 0 5.851 0 8.777-2.926 14.629-8.777 32.183-17.554 46.811-26.331 5.851-2.926 11.703-5.851 17.554-8.777s8.777-5.851 8.777-8.777c0-2.926 0-5.851-2.926-11.703l-8.777-11.703c-20.48-35.109-38.034-67.291-58.514-102.4-5.851-8.777-8.777-17.554-14.629-26.331-2.926-8.777-8.777-17.554-14.629-26.331-2.926-8.777-8.777-14.629-14.629-23.406-2.926-5.851-5.851-11.703-11.703-17.554-2.926-5.851-5.851-11.703-8.777-17.554-5.851-8.777-8.777-17.554-14.629-23.406-2.926-2.926-5.851-5.851-8.777-8.777 0 0-2.926-2.926-2.926-2.926l-5.851 2.926c-5.851 2.926-8.777 5.851-14.629 8.777s-11.703 5.851-14.629 8.777c-5.851 5.851-14.629 11.703-26.331 17.554z" />
<glyph unicode="&#xe912;" glyph-name="home" d="M892.343-64h-222.354c-17.554 0-32.183 14.629-32.183 32.183v318.903h-254.537v-318.903c0-17.554-14.629-32.183-32.183-32.183h-219.429c-17.554 0-32.183 14.629-32.183 32.183v538.331c0 17.554 14.629 32.183 32.183 32.183s32.183-14.629 32.183-32.183v-506.149h157.989v318.903c0 17.554 14.629 32.183 32.183 32.183h315.977c17.554 0 32.183-14.629 32.183-32.183v-318.903h157.989v506.149c0 17.554 14.629 32.183 32.183 32.183s32.183-14.629 32.183-32.183v-538.331c0-17.554-14.629-32.183-32.183-32.183zM991.817 392.411c-8.777 0-17.554 2.926-23.406 8.777l-456.411 479.817-456.411-479.817c-11.703-11.703-32.183-11.703-43.886 0s-11.703 32.183 0 43.886l479.817 506.149c5.851 5.851 11.703 8.777 20.48 8.777v0c8.777 0 17.554-2.926 23.406-8.777l476.891-503.223c11.703-11.703 11.703-32.183 0-43.886-5.851-8.777-14.629-11.703-20.48-11.703z" />
<glyph unicode="&#xe913;" glyph-name="in" d="M555.886 243.2c8.777 0 17.554 2.926 23.406 8.777l190.171 193.097-190.171 193.097c-11.703 11.703-32.183 11.703-43.886 0s-11.703-32.183 0-43.886l149.211-149.211-149.211-149.211c-11.703-11.703-11.703-32.183 0-43.886 2.926-5.851 11.703-8.777 20.48-8.777zM32.183 415.817h667.063c17.554 0 32.183 14.629 32.183 32.183s-14.629 32.183-32.183 32.183h-667.063c-17.554 0-32.183-14.629-32.183-32.183s14.629-32.183 32.183-32.183zM318.903 0.366v289.646h64.366v-251.611c0-20.48 17.554-38.034 38.034-38.034h497.371c20.48 0 38.034 17.554 38.034 38.034v819.2c0 20.48-17.554 38.034-38.034 38.034h-497.371c-20.48 0-38.034-17.554-38.034-38.034v-248.686h-64.366v286.72c0 35.109 29.257 64.366 64.366 64.366h576.366c35.109 0 64.366-29.257 64.366-64.366v-895.269c0-35.109-29.257-64.366-64.366-64.366h-576.366c-35.109 0-64.366 29.257-64.366 64.366z" />
<glyph unicode="&#xe914;" glyph-name="info" d="M523.703 547.474c17.554 0 29.257-14.629 29.257-29.257v-295.497c0-17.554-14.629-29.257-29.257-29.257-17.554 0-29.257 14.629-29.257 29.257v295.497c0 14.629 11.703 29.257 29.257 29.257zM465.189 550.4h58.514c17.554 0 29.257-14.629 29.257-29.257 0-17.554-14.629-29.257-29.257-29.257h-58.514c-17.554 0-29.257 14.629-29.257 29.257-2.926 14.629 11.703 29.257 29.257 29.257zM465.189 251.977h119.954c17.554 0 29.257-14.629 29.257-29.257 0-17.554-14.629-29.257-29.257-29.257h-119.954c-17.554 0-29.257 14.629-29.257 29.257-2.926 14.629 11.703 29.257 29.257 29.257zM500.297 728.869c32.183 0 58.514-26.331 58.514-58.514s-26.331-58.514-58.514-58.514c-32.183 0-58.514 26.331-58.514 58.514s26.331 58.514 58.514 58.514zM512 860.526c228.206 0 412.526-184.32 412.526-412.526s-184.32-412.526-412.526-412.526c-228.206 0-412.526 184.32-412.526 412.526s184.32 412.526 412.526 412.526zM512 960c-283.794 0-512-228.206-512-512s228.206-512 512-512c283.794 0 512 228.206 512 512s-228.206 512-512 512v0z" />
<glyph unicode="&#xe915;" glyph-name="left-bracket" d="M792.869 515.291c-5.851 5.851-14.629 11.703-23.406 17.554l-406.674 400.823c-35.109 35.109-93.623 35.109-131.657 0-35.109-35.109-35.109-93.623 0-128.731l359.863-356.937-359.863-356.937c-35.109-35.109-35.109-93.623 0-128.731s93.623-35.109 131.657 0l406.674 400.823c8.777 2.926 17.554 8.777 23.406 17.554 17.554 17.554 26.331 43.886 26.331 67.291s-8.777 49.737-26.331 67.291z" />
<glyph unicode="&#xe916;" glyph-name="lock-arrow" d="M918.674 532.846c-5.851 8.777-14.629 20.48-26.331 26.331-14.629 11.703-35.109 17.554-55.589 17.554v0h-32.183v128.731c-14.629 143.36-140.434 254.537-292.571 254.537 0 0 0 0 0 0s0 0 0 0c-152.137 0-277.943-111.177-292.571-254.537v-128.731h-35.109c-20.48 0-38.034-5.851-55.589-17.554-11.703-5.851-20.48-14.629-26.331-26.331-8.777-14.629-14.629-32.183-14.629-52.663v-447.634c0-20.48 5.851-38.034 17.554-52.663 5.851-8.777 14.629-20.48 26.331-26.331 14.629-11.703 35.109-17.554 52.663-17.554v0h652.434c20.48 0 38.034 5.851 55.589 17.554 11.703 5.851 20.48 14.629 26.331 26.331 11.703 14.629 17.554 35.109 17.554 52.663v447.634c0 20.48-5.851 38.034-17.554 52.663zM567.589 82.286c-5.851-5.851-11.703-8.777-20.48-8.777-5.851 0-14.629 2.926-20.48 8.777-11.703 11.703-11.703 29.257 0 38.034l99.474 102.4h-301.349c-14.629 0-26.331 11.703-26.331 26.331s11.703 26.331 26.331 26.331h304.274l-96.549 99.474c-11.703 11.703-11.703 29.257 0 38.034 11.703 11.703 26.331 11.703 38.034 0l157.989-166.766-160.914-163.84zM740.206 576.731h-456.411v96.549c0 122.88 102.4 222.354 228.206 225.28 125.806 0 228.206-99.474 228.206-225.28v-96.549z" />
<glyph unicode="&#xe917;" glyph-name="lock-open" d="M839.68 576.731h-555.886v96.549c0 122.88 102.4 225.28 228.206 225.28 114.103 0 210.651-84.846 225.28-193.097h67.291c-14.629 143.36-140.434 254.537-292.571 254.537-160.914 0-292.571-128.731-292.571-286.72v-96.549h-35.109c-52.663 0-96.549-43.886-96.549-96.549v-447.634c0-52.663 43.886-96.549 96.549-96.549h652.434c52.663 0 96.549 43.886 96.549 96.549v447.634c2.926 52.663-40.96 96.549-93.623 96.549zM871.863 64.731c0-35.109-29.257-64.366-64.366-64.366h-588.069c-35.109 0-64.366 29.257-64.366 64.366v383.269c0 35.109 29.257 64.366 64.366 64.366h588.069c35.109 0 64.366-29.257 64.366-64.366v-383.269zM512 383.634c-73.143 0-131.657-58.514-131.657-128.731s58.514-128.731 131.657-128.731 131.657 58.514 131.657 128.731c0 73.143-58.514 128.731-131.657 128.731zM512 190.537c-35.109 0-64.366 29.257-64.366 64.366s29.257 64.366 64.366 64.366c35.109 0 64.366-29.257 64.366-64.366s-29.257-64.366-64.366-64.366z" />
<glyph unicode="&#xe918;" glyph-name="lock-open2" d="M87.771 480.183v-447.634c0-52.663 43.886-96.549 96.549-96.549h652.434c52.663 0 96.549 43.886 96.549 96.549v447.634c0 52.663-43.886 96.549-96.549 96.549h-32.183v96.549c0 157.989-131.657 286.72-292.571 286.72-152.137 0-277.943-111.177-292.571-254.537h67.291c14.629 108.251 111.177 193.097 225.28 193.097 125.806 0 228.206-99.474 228.206-225.28v-96.549h-555.886c-52.663 0-96.549-43.886-96.549-96.549zM152.137 448c0 35.109 29.257 64.366 64.366 64.366h588.069c35.109 0 64.366-29.257 64.366-64.366v-383.269c0-35.109-29.257-64.366-64.366-64.366h-585.143c-35.109 0-64.366 29.257-64.366 64.366v383.269zM380.343 254.903c0-70.217 58.514-128.731 131.657-128.731s131.657 58.514 131.657 128.731c0 70.217-58.514 128.731-131.657 128.731s-131.657-55.589-131.657-128.731zM447.634 254.903c0 35.109 29.257 64.366 64.366 64.366s64.366-29.257 64.366-64.366c0-35.109-29.257-64.366-64.366-64.366s-64.366 29.257-64.366 64.366z" />
<glyph unicode="&#xe919;" glyph-name="mail" d="M927.451 781.531h-830.903c-52.663 0-96.549-40.96-96.549-93.623v-476.891c0-52.663 43.886-96.549 96.549-96.549h830.903c52.663 0 96.549 43.886 96.549 96.549v476.891c0 52.663-43.886 93.623-96.549 93.623zM128.731 717.166h769.463c8.777 0 17.554-2.926 26.331-5.851l-386.194-336.457c-5.851-5.851-14.629-8.777-23.406-8.777s-17.554 2.926-23.406 8.777l-377.417 342.309c2.926 0 8.777 0 14.629 0zM64.366 655.726c0 5.851 0 11.703 2.926 17.554l251.611-228.206-251.611-222.354c-2.926 5.851-2.926 11.703-2.926 17.554v415.451zM895.269 178.834h-766.537c-5.851 0-8.777 0-14.629 0l251.611 222.354 81.92-73.143c40.96-32.183 93.623-29.257 131.657 0l81.92 73.143 248.686-219.429c-5.851-2.926-8.777-2.926-14.629-2.926zM959.634 240.274c0-5.851 0-11.703-2.926-17.554l-248.686 219.429 248.686 222.354c0-2.926 0-5.851 0-8.777v-415.451z" />
<glyph unicode="&#xe91a;" glyph-name="mark" d="M512 960c-210.651 0-383.269-166.766-383.269-371.566 0-304.274 336.457-652.434 383.269-652.434s383.269 348.16 383.269 652.434c0 204.8-172.617 371.566-383.269 371.566zM512 424.594c-93.623 0-166.766 73.143-166.766 163.84s76.069 163.84 166.766 163.84c93.623 0 166.766-73.143 166.766-163.84s-73.143-163.84-166.766-163.84z" />
<glyph unicode="&#xe91b;" glyph-name="mark-outlined" d="M514.926 895.634c222.354 0 321.829-163.84 321.829-327.68 0-143.36-102.4-333.531-307.2-564.663 0 0-2.926-2.926-2.926-2.926-2.926 0-2.926 2.926-2.926 2.926l-20.48 20.48c-134.583 149.211-315.977 356.937-315.977 547.109 0 175.543 152.137 324.754 327.68 324.754zM514.926 960c-210.651 0-392.046-178.469-392.046-389.12 0-222.354 207.726-447.634 348.16-608.549 0 0 23.406-26.331 49.737-26.331 0 0 2.926 0 2.926 0 29.257 0 49.737 26.331 49.737 26.331 131.657 149.211 324.754 394.971 324.754 608.549 2.926 210.651-137.509 389.12-383.269 389.12v0zM512 702.537c70.217 0 128.731-58.514 128.731-128.731s-55.589-128.731-128.731-128.731c-70.217 0-131.657 58.514-131.657 128.731 2.926 73.143 58.514 128.731 131.657 128.731zM512 766.903c-108.251 0-193.097-84.846-193.097-193.097 0-105.326 87.771-193.097 193.097-193.097s193.097 84.846 193.097 193.097c2.926 105.326-84.846 193.097-193.097 193.097v0z" />
<glyph unicode="&#xe91c;" glyph-name="shopping" d="M1015.223 646.949c-8.777 11.703-23.406 23.406-52.663 23.406h-55.589c17.554 29.257 29.257 58.514 29.257 84.846 0 210.651-225.28 242.834-298.423 70.217-76.069 181.394-295.497 140.434-298.423-70.217 0-26.331 11.703-55.589 29.257-84.846h-67.291c-23.406 87.771-40.96 160.914-46.811 178.469-14.629 55.589-32.183 70.217-76.069 70.217h-155.063c-11.703 0-23.406-8.777-23.406-23.406s11.703-23.406 23.406-23.406h152.137c20.48 0 20.48 0 29.257-35.109 11.703-46.811 163.84-605.623 169.691-626.103 2.926-17.554 20.48-46.811 70.217-46.811h368.64c40.96 0 52.663 17.554 67.291 61.44 5.851 11.703 17.554 52.663 38.034 99.474 49.737 134.583 93.623 254.537 99.474 269.166 8.777 17.554 5.851 38.034-2.926 52.663zM974.263 605.989c-5.851-14.629-61.44-166.766-99.474-269.166-17.554-46.811-32.183-87.771-38.034-99.474-8.777-20.48-11.703-26.331-11.703-29.257 0 0-2.926 0-8.777 0h-368.64c-14.629 0-20.48 5.851-20.48 8.777s-61.44 222.354-108.251 400.823h90.697c73.143-87.771 187.246-169.691 234.057-204.8 43.886 32.183 157.989 117.029 231.131 204.8h87.771c8.777 0 11.703-2.926 14.629-2.926-2.926 2.926 0-2.926-2.926-8.777zM582.217 35.474c0-42.012-34.057-76.069-76.069-76.069s-76.069 34.057-76.069 76.069c0 42.012 34.057 76.069 76.069 76.069s76.069-34.057 76.069-76.069zM827.977 35.474c0-42.012-34.057-76.069-76.069-76.069s-76.069 34.057-76.069 76.069c0 42.012 34.057 76.069 76.069 76.069s76.069-34.057 76.069-76.069z" />
<glyph unicode="&#xe921;" glyph-name="phone" d="M198.949 960c-14.629 0-32.183-5.851-49.737-14.629 0-2.926-152.137-111.177-149.211-172.617 5.851-175.543 175.543-380.343 315.977-520.777s345.234-310.126 520.777-315.977v0c61.44 0 169.691 149.211 169.691 149.211 29.257 40.96 17.554 84.846-8.777 102.4-14.629 11.703-187.246 125.806-207.726 137.509-8.777 5.851-20.48 8.777-32.183 8.777-14.629 0-32.183-5.851-49.737-14.629s-67.291-38.034-90.697-49.737c-20.48 14.629-73.143 52.663-152.137 134.583-78.994 78.994-117.029 128.731-134.583 152.137 14.629 23.406 40.96 73.143 49.737 90.697 17.554 32.183 17.554 61.44 5.851 81.92-8.777 20.48-122.88 190.171-134.583 207.726-8.777 14.629-29.257 23.406-52.663 23.406v0z" />
<glyph unicode="&#xe922;" glyph-name="phone-in" d="M201.874 895.634c2.926 0 2.926 0 0 0 20.48-26.331 117.029-172.617 134.583-198.949 0-2.926 0-8.777-5.851-20.48s-23.406-43.886-49.737-87.771l-20.48-38.034 23.406-32.183c17.554-23.406 58.514-78.994 140.434-160.914s134.583-122.88 157.989-140.434l32.183-23.406 35.109 20.48c35.109 20.48 76.069 43.886 87.771 49.737s17.554 5.851 20.48 5.851c0 0 0 0 0 0 23.406-14.629 172.617-114.103 198.949-131.657 0-2.926 0-8.777-5.851-14.629-40.96-55.589-96.549-114.103-119.954-122.88-119.954 5.851-283.794 111.177-468.114 298.423-184.32 184.32-289.646 354.011-295.497 471.040 8.777 23.406 67.291 81.92 119.954 119.954 5.851 5.851 11.703 5.851 14.629 5.851zM201.874 960c-14.629 0-32.183-5.851-49.737-14.629-2.926 0-149.211-111.177-149.211-172.617 5.851-175.543 172.617-380.343 313.051-520.777s345.234-310.126 517.851-315.977v0c61.44 0 166.766 149.211 166.766 149.211 29.257 40.96 17.554 84.846-8.777 102.4-14.629 11.703-184.32 125.806-204.8 137.509-8.777 5.851-20.48 8.777-32.183 8.777-14.629 0-32.183-5.851-49.737-14.629s-64.366-38.034-90.697-49.737c-20.48 14.629-70.217 52.663-149.211 134.583-78.994 78.994-117.029 128.731-131.657 152.137 14.629 23.406 40.96 73.143 49.737 90.697 17.554 32.183 17.554 61.44 5.851 81.92s-125.806 190.171-137.509 207.726c-8.777 14.629-26.331 23.406-49.737 23.406v0zM649.509 591.36c-11.703 11.703-11.703 32.183 0 43.886l310.126 313.051c11.703 11.703 32.183 11.703 43.886 0s11.703-32.183 0-43.886l-307.2-313.051c-11.703-11.703-32.183-11.703-46.811 0zM699.246 641.097h196.023c11.703 0 23.406-8.777 26.331-23.406v-17.554c0-11.703-11.703-23.406-23.406-23.406h-228.206c0 0 0 0 0 0h-11.703c-5.851 0-11.703 2.926-17.554 5.851-2.926 2.926-5.851 8.777-5.851 17.554v11.703c0 0 0 0 0 0v231.131c0 11.703 11.703 20.48 23.406 20.48h17.554c11.703 0 23.406-11.703 23.406-23.406v-198.949z" />
<glyph unicode="&#xe923;" glyph-name="phone-out" d="M201.874 895.634c0 0 0 0 0 0 20.48-26.331 117.029-172.617 134.583-198.949 0-2.926 0-8.777-5.851-20.48s-23.406-43.886-49.737-87.771l-23.406-38.034 23.406-32.183c17.554-23.406 58.514-78.994 140.434-160.914s134.583-122.88 157.989-140.434l32.183-23.406 35.109 20.48c35.109 20.48 76.069 43.886 87.771 49.737s17.554 5.851 20.48 5.851c0 0 0 0 0 0 23.406-14.629 172.617-114.103 198.949-131.657 0-2.926 0-8.777-5.851-14.629-40.96-55.589-96.549-114.103-119.954-122.88-119.954 5.851-283.794 111.177-468.114 298.423-184.32 184.32-289.646 354.011-292.571 471.040 8.777 23.406 67.291 81.92 119.954 119.954 2.926 5.851 8.777 5.851 14.629 5.851zM201.874 960c-17.554 0-35.109-5.851-49.737-14.629-2.926-2.926-152.137-111.177-149.211-172.617 5.851-175.543 172.617-380.343 313.051-520.777s342.309-310.126 514.926-315.977v0c61.44 0 166.766 149.211 166.766 149.211 29.257 40.96 17.554 84.846-8.777 102.4-14.629 11.703-184.32 125.806-204.8 137.509-8.777 5.851-20.48 8.777-32.183 8.777-14.629 0-32.183-5.851-49.737-14.629s-64.366-38.034-90.697-49.737c-20.48 14.629-70.217 52.663-149.211 134.583-78.994 78.994-117.029 128.731-131.657 152.137 14.629 23.406 40.96 73.143 49.737 90.697 17.554 32.183 17.554 61.44 5.851 81.92-8.777 20.48-122.88 190.171-134.583 207.726-8.777 14.629-29.257 23.406-49.737 23.406v0zM1006.446 945.371c11.703-11.703 11.703-32.183 0-43.886l-310.126-313.051c-11.703-11.703-32.183-11.703-43.886 0s-11.703 32.183 0 43.886l310.126 313.051c11.703 11.703 32.183 11.703 43.886 0zM956.709 895.634h-198.949c-11.703 0-26.331 8.777-26.331 23.406v17.554c0 11.703 11.703 23.406 23.406 23.406h228.206c0 0 0 0 0 0h11.703c5.851 0 11.703-2.926 17.554-5.851 2.926-2.926 5.851-8.777 5.851-17.554v-11.703c0 0 0 0 0 0v-231.131c0-11.703-11.703-20.48-23.406-20.48h-17.554c-11.703 0-23.406 11.703-23.406 23.406l2.926 198.949z" />
<glyph unicode="&#xe924;" glyph-name="play" d="M251.611-64l520.777 512-520.777 512v-1024z" />
<glyph unicode="&#xe925;" glyph-name="pointer" d="M283.794-20.114l-204.8 980.114 863.086-547.109-453.486-23.406-204.8-409.6zM479.817 509.44l362.789-456.411c20.48-26.331 11.703-70.217-20.48-96.549s-76.069-26.331-96.549 0l-362.789 456.411c-20.48 26.331-11.703 70.217 20.48 96.549s76.069 26.331 96.549 0z" />
<glyph unicode="&#xe926;" glyph-name="power" d="M509.074-64c-29.257 0-61.44 2.926-90.697 8.777-117.029 23.406-213.577 93.623-280.869 193.097s-90.697 222.354-64.366 339.383c29.257 140.434 119.954 254.537 248.686 315.977 14.629 8.777 35.109 0 43.886-14.629s0-35.109-14.629-43.886c-111.177-52.663-190.171-152.137-213.577-272.091-20.48-102.4 0-204.8 55.589-289.646 55.589-87.771 140.434-146.286 239.909-166.766 207.726-43.886 412.526 93.623 456.411 301.349 35.109 175.543-52.663 351.086-213.577 427.154-14.629 8.777-23.406 26.331-14.629 43.886 8.777 14.629 26.331 23.406 43.886 14.629 190.171-87.771 292.571-292.571 248.686-500.297-46.811-210.651-234.057-356.937-444.709-356.937zM512 960c17.554 0 32.183-14.629 32.183-32.183v-351.086c0-17.554-14.629-32.183-32.183-32.183s-32.183 14.629-32.183 32.183v351.086c0 17.554 14.629 32.183 32.183 32.183z" />
<glyph unicode="&#xe927;" glyph-name="right-bracket" d="M231.131 380.709c5.851-5.851 14.629-11.703 23.406-17.554l406.674-400.823c35.109-35.109 93.623-35.109 131.657 0 35.109 35.109 35.109 93.623 0 128.731l-362.789 356.937 362.789 356.937c35.109 35.109 35.109 93.623 0 128.731s-93.623 35.109-131.657 0l-406.674-400.823c-8.777-2.926-17.554-8.777-23.406-17.554-17.554-17.554-26.331-43.886-26.331-67.291s8.777-49.737 26.331-67.291z" />
<glyph unicode="&#xe928;" glyph-name="search" d="M1006.446 35.474l-280.869 295.497c46.811 64.366 73.143 143.36 73.143 231.131 2.926 219.429-178.469 397.897-397.897 397.897-222.354 0-400.823-178.469-400.823-400.823 0-219.429 178.469-400.823 400.823-400.823 93.623 0 178.469 35.109 248.686 87.771l280.869-295.497c20.48-23.406 55.589-23.406 78.994 0 20.48 26.331 20.48 61.44-2.926 84.846zM96.549 559.177c0 166.766 134.583 304.274 304.274 304.274s304.274-137.509 304.274-304.274c0-166.766-137.509-304.274-304.274-304.274s-304.274 137.509-304.274 304.274z" />
<glyph unicode="&#xe929;" glyph-name="shopping-circle" d="M512-64c-280.869 0-512 231.131-512 512s231.131 512 512 512c280.869 0 512-231.131 512-512s-231.131-512-512-512zM512 933.669c-269.166 0-485.669-216.503-485.669-485.669s219.429-485.669 485.669-485.669 485.669 219.429 485.669 485.669-216.503 485.669-485.669 485.669zM751.909 529.92c-2.926 5.851-11.703 11.703-29.257 11.703h-29.257c8.777 14.629 17.554 32.183 17.554 46.811 0 114.103-122.88 131.657-160.914 38.034-40.96 99.474-160.914 76.069-160.914-38.034 0-14.629 5.851-29.257 14.629-46.811h-38.034c-14.629 49.737-23.406 90.697-26.331 96.549-8.777 29.257-17.554 38.034-40.96 38.034h-87.771c-5.851 2.926-11.703-2.926-11.703-8.777 0-8.777 5.851-14.629 14.629-14.629h81.92c11.703 0 11.703 0 17.554-20.48 5.851-26.331 90.697-330.606 93.623-342.309 0-8.777 11.703-26.331 38.034-26.331h198.949c23.406 0 29.257 8.777 38.034 32.183 2.926 5.851 11.703 29.257 20.48 52.663 26.331 73.143 49.737 137.509 52.663 146.286 2.926 17.554 2.926 26.331-2.926 35.109zM728.503 509.44c-2.926-8.777-32.183-90.697-52.663-146.286-8.777-26.331-17.554-46.811-20.48-55.589-2.926-11.703-5.851-14.629-5.851-14.629s0 0-5.851 0h-201.874c-8.777 0-11.703 2.926-11.703 5.851s-32.183 119.954-58.514 219.429h49.737c40.96-46.811 102.4-93.623 125.806-111.177 23.406 17.554 84.846 64.366 125.806 111.177h46.811c5.851 0 5.851 0 8.777-2.926 0 0 0-2.926 0-5.851zM514.926 196.389c0-22.622-18.338-40.96-40.96-40.96s-40.96 18.338-40.96 40.96c0 22.622 18.338 40.96 40.96 40.96s40.96-18.338 40.96-40.96zM649.509 196.389c0-22.622-18.338-40.96-40.96-40.96s-40.96 18.338-40.96 40.96c0 22.622 18.338 40.96 40.96 40.96s40.96-18.338 40.96-40.96z" />
<glyph unicode="&#xe92a;" glyph-name="star" d="M983.040 594.286l-283.794 55.589-143.36 248.686c-8.777 14.629-26.331 26.331-43.886 26.331s-35.109-8.777-43.886-26.331l-140.434-248.686-286.72-52.663c-17.554-2.926-32.183-14.629-38.034-32.183s0-35.109 11.703-46.811l198.949-204.8-35.109-280.869c-2.926-20.48 5.851-38.034 20.48-49.737s35.109-11.703 49.737-5.851l263.314 119.954 266.24-119.954c17.554-8.777 35.109-5.851 49.737 5.851 2.926 0 2.926 2.926 5.851 5.851 11.703 11.703 17.554 26.331 14.629 40.96l-38.034 280.869 196.023 204.8c11.703 11.703 17.554 32.183 11.703 49.737-2.926 14.629-17.554 26.331-35.109 29.257z" />
<glyph unicode="&#xe92b;" glyph-name="twitter2" d="M1024 766.903c-38.034-17.554-78.994-29.257-119.954-32.183 43.886 26.331 76.069 67.291 93.623 117.029-40.96-23.406-84.846-40.96-134.583-49.737-38.034 40.96-93.623 67.291-152.137 67.291-117.029 0-210.651-93.623-210.651-210.651 0-17.554 2.926-32.183 5.851-46.811-175.543 2.926-330.606 87.771-435.931 213.577-17.554-32.183-29.257-67.291-29.257-105.326 0-73.143 38.034-137.509 93.623-175.543-35.109 0-67.291 11.703-96.549 26.331 0 0 0-2.926 0-2.926 0-102.4 73.143-187.246 169.691-204.8-17.554-5.851-35.109-8.777-55.589-8.777-14.629 0-26.331 0-40.96 2.926 26.331-84.846 105.326-143.36 196.023-146.286-73.143-55.589-163.84-90.697-260.389-90.697-17.554 0-35.109 0-49.737 2.926 93.623-58.514 204.8-93.623 321.829-93.623 386.194 0 596.846 318.903 596.846 596.846 0 8.777 0 17.554 0 26.331 43.886 35.109 78.994 70.217 108.251 114.103v0z" />
<glyph unicode="&#xe92c;" glyph-name="user" d="M514.926 883.931c108.251 0 204.8-93.623 204.8-149.211v-160.914c0-58.514-17.554-172.617-81.92-225.28-20.48-14.629-29.257-40.96-29.257-67.291 2.926-26.331 17.554-46.811 38.034-61.44l236.983-131.657c2.926 0 5.851-2.926 5.851-2.926 5.851-2.926 11.703-5.851 17.554-8.777v-67.291h-789.943v67.291c5.851 2.926 11.703 8.777 17.554 11.703 2.926 0 2.926 2.926 5.851 2.926l242.834 131.657c23.406 11.703 38.034 35.109 38.034 58.514 2.926 26.331-8.777 49.737-29.257 67.291-64.366 49.737-90.697 163.84-90.697 225.28v160.914c2.926 55.589 105.326 149.211 213.577 149.211zM514.926 960c-140.434 0-283.794-117.029-283.794-225.28v-160.914c0-70.217 29.257-210.651 117.029-283.794l-242.834-131.657c0 0-64.366-29.257-64.366-64.366v-96.549c0-35.109 29.257-64.366 64.366-64.366h813.349c35.109 0 64.366 29.257 64.366 64.366v96.549c0 38.034-64.366 64.366-64.366 64.366l-236.983 131.657c87.771 70.217 111.177 207.726 111.177 283.794v160.914c0 108.251-137.509 225.28-277.943 225.28v0z" />
<glyph unicode="&#xe92d;" glyph-name="user-plus" d="M64.366 67.657c0 26.331 20.48 32.183 26.331 38.034l280.869 131.657c20.48 8.777 35.109 29.257 38.034 49.737 2.926 23.406-5.851 43.886-23.406 58.514-67.291 52.663-96.549 169.691-96.549 231.131v157.989c0 67.291 117.029 157.989 225.28 157.989s225.28-90.697 225.28-157.989v-157.989c0-61.44-26.331-178.469-93.623-231.131-17.554-14.629-26.331-35.109-23.406-58.514s17.554-40.96 38.034-49.737l96.549-43.886 14.629 64.366-84.846 40.96c87.771 70.217 119.954 204.8 119.954 283.794v152.137c0 105.326-146.286 222.354-286.72 222.354s-286.72-117.029-286.72-222.354v-157.989c0-70.217 32.183-210.651 119.954-280.869l-280.869-131.657c0 0-64.366-29.257-64.366-64.366v-96.549c0-35.109 29.257-64.366 64.366-64.366h705.097v64.366h-713.874v64.366zM991.817 129.097h-96.549v96.549c0 17.554-14.629 32.183-32.183 32.183s-32.183-14.629-32.183-32.183v-96.549h-96.549c-17.554 0-32.183-14.629-32.183-32.183s14.629-32.183 32.183-32.183h96.549v-96.549c0-17.554 14.629-32.183 32.183-32.183s32.183 14.629 32.183 32.183v96.549h96.549c17.554 0 32.183 14.629 32.183 32.183s-14.629 32.183-32.183 32.183z" />
<glyph unicode="&#xe92e;" glyph-name="user-plus-circled" d="M313.051 278.309c0 11.703 8.777 14.629 11.703 14.629l122.88 58.514c8.777 2.926 14.629 11.703 14.629 20.48s-2.926 17.554-8.777 26.331c-29.257 23.406-40.96 73.143-40.96 99.474v70.217c0 29.257 49.737 70.217 96.549 70.217s96.549-38.034 96.549-70.217v-70.217c0-26.331-11.703-76.069-40.96-99.474-8.777-5.851-11.703-14.629-11.703-26.331 0-8.777 5.851-17.554 14.629-20.48l40.96-20.48 5.851 26.331-35.109 17.554c38.034 29.257 52.663 87.771 52.663 122.88v70.217c0 46.811-64.366 96.549-125.806 96.549s-125.806-49.737-125.806-96.549v-70.217c0-29.257 14.629-90.697 52.663-122.88l-122.88-58.514c0 0-26.331-11.703-26.331-26.331v-40.96c0-14.629 11.703-26.331 26.331-26.331h304.274v26.331h-301.349v29.257zM713.874 304.64h-40.96v40.96c0 8.777-5.851 14.629-14.629 14.629s-14.629-5.851-14.629-14.629v-40.96h-40.96c-8.777 0-14.629-5.851-14.629-14.629s5.851-14.629 14.629-14.629h40.96v-40.96c0-8.777 5.851-14.629 14.629-14.629s14.629 5.851 14.629 14.629v40.96h40.96c8.777 0 14.629 5.851 14.629 14.629s-5.851 14.629-14.629 14.629zM506.149-69.851c-280.869 0-512 231.131-512 512s231.131 512 512 512 512-228.206 512-512-228.206-512-512-512zM506.149 913.189c-257.463 0-468.114-210.651-468.114-468.114s210.651-468.114 468.114-468.114 468.114 210.651 468.114 468.114-207.726 468.114-468.114 468.114z" />
<glyph unicode="&#xe92f;" glyph-name="writte" d="M512 799.086h-444.709v-798.72h731.429v406.674l64.366 61.44v-468.114c0-35.109-29.257-64.366-64.366-64.366h-731.429c-35.109 0-64.366 29.257-64.366 64.366v798.72c0 35.109 29.257 64.366 64.366 64.366h509.074l2.926-2.926-67.291-61.44zM877.714 895.634c17.554 0 32.183-8.777 49.737-23.406 20.48-20.48 29.257-38.034 29.257-55.589s-8.777-38.034-29.257-58.514c-17.554-17.554-155.063-155.063-412.526-409.6l-17.554-17.554c-29.257-8.777-99.474-32.183-152.137-49.737 17.554 55.589 38.034 125.806 46.811 157.989 52.663 55.589 412.526 418.377 427.154 430.080 2.926 2.926 26.331 26.331 58.514 26.331zM877.714 960c-52.663 0-90.697-35.109-102.4-43.886-14.629-14.629-435.931-438.857-435.931-438.857-2.926-2.926-5.851-8.777-5.851-11.703-11.703-43.886-70.217-231.131-70.217-234.057-2.926-8.777 0-20.48 5.851-26.331s11.703-8.777 17.554-8.777c2.926 0 5.851 0 8.777 0s196.023 64.366 225.28 73.143c2.926 0 8.777 2.926 11.703 5.851 20.48 20.48 406.674 403.749 438.857 435.931s49.737 67.291 46.811 105.326c0 35.109-17.554 67.291-49.737 99.474-26.331 29.257-58.514 43.886-90.697 43.886v0z" />
<glyph unicode="&#xe930;" glyph-name="menu" d="M748.983 512.366h-708.023c-23.406 0-40.96 20.48-40.96 43.886s17.554 43.886 40.96 43.886h705.097c23.406 0 40.96-20.48 40.96-43.886 2.926-26.331-17.554-43.886-38.034-43.886zM748.983 298.789h-708.023c-23.406 0-40.96 17.554-40.96 40.96s17.554 43.886 40.96 43.886h705.097c23.406 0 40.96-20.48 40.96-43.886 2.926-23.406-17.554-40.96-38.034-40.96zM748.983 82.286h-708.023c-23.406 0-40.96 20.48-40.96 43.886s17.554 43.886 40.96 43.886h705.097c23.406 0 40.96-20.48 40.96-43.886 2.926-23.406-17.554-43.886-38.034-43.886zM874.789 512.366c-81.92 0-149.211 67.291-149.211 149.211s64.366 152.137 149.211 152.137 149.211-70.217 149.211-152.137-67.291-149.211-149.211-149.211zM874.789 769.829c-58.514 0-105.326-46.811-105.326-105.326s46.811-105.326 105.326-105.326 105.326 46.811 105.326 105.326-46.811 105.326-105.326 105.326z" />
</font>
</defs>
</svg>
